#!OML:ASF I:\Actors\actors\Patient Classification 2\Patient 1\Session 1\actor1.ASF
:FULLY-SPECIFIED
:DEGREES
654
root -0.479199 18.7238 5.55322 2.82176 -1.39608 -1.65312
lowerback 4.03189 1.83068 -3.20503
upperback -2.48142 2.27292 0.502466
thorax -4.97985 1.24438 2.12647
lowerneck -14.4759 -3.44021 -2.93248
upperneck 11.0605 -4.91127 6.04917
head 5.94736 -2.04398 1.93512
rclavicle -1.00153e-014 -8.34896e-015
rhumerus -0.462995 3.34091 -51.4602
rradius 98.44
rwrist -30.7296
rhand -13.2709 -50.5859
rfingers 7.12502
rthumb 12.832 -80.1714
lclavicle -1.00153e-014 -8.34896e-015
lhumerus 9.49467 -8.75294 59.8157
lradius 94.7994
lwrist 48.8512
lhand -20.1677 -15.9372
lfingers 7.12502
lthumb 6.17791 13.9527
rfemur 0 0 0
rtibia 0
rfoot 0 0
rtoes 0
lfemur -6.1357 -4.82126 -13.1539
ltibia 22.3125
lfoot -23.8754 16.1557
ltoes -54.051
655
root -0.473206 18.726 5.5587 2.95076 -1.3871 -1.70856
lowerback 3.9042 1.82361 -3.05007
upperback -2.56255 2.27628 0.501292
thorax -4.98535 1.24203 2.04065
lowerneck -14.4193 -3.42644 -3.00299
upperneck 11.0662 -4.8926 6.13867
head 5.943 -2.03199 1.9775
rclavicle 6.42478e-015 9.14409e-015
rhumerus -1.61132 3.69016 -50.9405
rradius 98.9559
rwrist -30.3889
rhand -13.7947 -49.8429
rfingers 7.12502
rthumb 12.3271 -79.4595
lclavicle 6.42478e-015 9.14409e-015
lhumerus 8.45385 -8.36985 60.074
lradius 95.4905
lwrist 48.0262
lhand -19.1953 -15.7495
lfingers 7.12502
lthumb 7.11666 14.1108
rfemur 0 0 0
rtibia 0
rfoot 0 0
rtoes 0
lfemur -6.26737 -4.88474 -13.1094
ltibia 22.3212
lfoot -23.9094 16.19
ltoes -53.9606
656
root -0.468991 18.7273 5.56871 3.01715 -1.36137 -1.68056
lowerback 3.77581 1.82364 -2.96898
upperback -2.63596 2.28282 0.46353
thorax -4.98421 1.2428 1.95819
lowerneck -14.3129 -3.39516 -2.99784
upperneck 11.0698 -4.84976 6.11361
head 5.92337 -2.0149 1.97415
rclavicle -1.58593e-014 4.96962e-015
rhumerus -3.18273 4.20717 -50.4305
rradius 99.5032
rwrist -29.1456
rhand -14.2623 -49.0899
rfingers 7.12502
rthumb 11.8762 -78.7331
lclavicle -1.58593e-014 4.96962e-015
lhumerus 7.04271 -8.13414 60.3566
lradius 96.4439
lwrist 46.7934
lhand -18.2615 -15.7963
lfingers 7.12502
lthumb 8.01793 14.0317
rfemur 0 0 0
rtibia 0
rfoot 0 0
rtoes 0
lfemur -6.31705 -4.93978 -13.1585
ltibia 22.3264
lfoot -23.9457 16.199
ltoes -53.9894
657
root -0.464854 18.7279 5.58403 3.0386 -1.31306 -1.64085
lowerback 3.62052 1.81521 -2.89167
upperback -2.70011 2.27877 0.430475
thorax -4.95778 1.23809 1.88468
lowerneck -14.1295 -3.36927 -2.97007
upperneck 11.0528 -4.80714 6.00684
head 5.8815 -2.00498 1.9421
rclavicle -3.14359e-014 -9.93923e-016
rhumerus -5.1143 4.88382 -50.0187
rradius 99.9553
rwrist -27.0035
rhand -14.6441 -48.1182
rfingers 7.12502
rthumb 11.508 -77.7823
lclavicle -3.14359e-014 -9.93923e-016
lhumerus 5.24621 -7.96408 60.7449
lradius 97.5532
lwrist 45.1335
lhand -17.325 -16.1522
lfingers 7.12502
lthumb 8.92178 13.6392
rfemur 0 0 0
rtibia 0
rfoot 0 0
rtoes 0
lfemur -6.29765 -5.00082 -13.2249
ltibia 22.3235
lfoot -23.9843 16.2104
ltoes -54.0388
658
root -0.460102 18.7269 5.60178 3.08248 -1.25621 -1.61959
lowerback 3.40452 1.78088 -2.7408
upperback -2.75961 2.24508 0.380215
thorax -4.88635 1.21525 1.75664
lowerneck -13.9353 -3.35388 -2.92831
upperneck 11.0357 -4.78277 5.90663
head 5.83861 -2.00292 1.90825
rclavicle 1.21134e-016 3.97569e-015
rhumerus -7.2794 5.64225 -49.8427
rradius 100.31
rwrist -24.467
rhand -15.0906 -46.7854
rfingers 7.12502
rthumb 11.0774 -76.4731
lclavicle 1.21134e-016 3.97569e-015
lhumerus 3.06685 -7.79931 61.2036
lradius 98.8125
lwrist 43.1595
lhand -16.5317 -16.8313
lfingers 7.12502
lthumb 9.68721 12.926
rfemur 0 0 0
rtibia 0
rfoot 0 0
rtoes 0
lfemur -6.28155 -5.09558 -13.2702
ltibia 22.2986
lfoot -24.041 16.234
ltoes -54.0245
659
root -0.455623 18.7244 5.62141 3.11938 -1.21598 -1.60377
lowerback 3.239 1.71176 -2.50814
upperback -2.86316 2.16398 0.264246
thorax -4.88151 1.16594 1.51609
lowerneck -13.803 -3.3123 -2.75132
upperneck 11.1553 -4.75148 5.77581
head 5.8451 -1.99068 1.84246
rclavicle 1.04921e-014 1.15295e-014
rhumerus -9.74231 6.50328 -50.1286
rradius 100.786
rwrist -22.0389
rhand -15.8828 -45.3055
rfingers 7.12502
rthumb 10.3132 -75.0327
lclavicle 1.04921e-014 1.15295e-014
lhumerus 0.436074 -7.70896 61.6577
lradius 100.187
lwrist 41.1316
lhand -16.1588 -17.9152
lfingers 7.12502
lthumb 10.047 11.825
rfemur 0 0 0
rtibia 0
rfoot 0 0
rtoes 0
lfemur -6.23934 -5.2035 -13.3139
ltibia 22.269
lfoot -24.1135 16.2933
ltoes -54.0413
